<?xml version="1.0" encoding="UTF-8"?>
<!DOCTYPE svg PUBLIC "-//W3C//DTD SVG 1.1//EN" "http://www.w3.org/Graphics/SVG/1.1/DTD/svg11.dtd">
<!-- Creator: CorelDRAW X7 -->
<svg xmlns="http://www.w3.org/2000/svg" xml:space="preserve" width="210mm" height="297mm" version="1.1" style="shape-rendering:geometricPrecision; text-rendering:geometricPrecision; image-rendering:optimizeQuality; fill-rule:evenodd; clip-rule:evenodd"
viewBox="0 0 21000 29700"
 xmlns:xlink="http://www.w3.org/1999/xlink">
 <defs>
  <style type="text/css">
   <![CDATA[
    .fil0 {fill:#5FD393}
   ]]>
  </style>
 </defs>
 <g id="Layer_x0020_1">
  <metadata id="CorelCorpID_0Corel-Layer"/>
  <g id="_2671971788288">
   <path class="fil0" d="M10115 7440l0 386c0,64 21,131 41,178 16,38 38,74 63,104l32 33c0,0 1,1 2,2 0,0 6,5 7,6 156,141 348,147 348,106 0,-191 -66,-77 -212,-165 -71,-42 -139,-128 -139,-238l0 -412c0,-171 152,-312 317,-312 170,0 321,139 321,312l0 378c0,69 -24,132 -52,174 -26,40 -149,159 -149,87 0,-13 16,-21 25,-27 32,-19 57,-43 80,-73 26,-34 54,-96 54,-153l0 -381c0,-38 -14,-81 -26,-107 -75,-166 -303,-225 -441,-90 -41,41 -86,109 -86,188l0 394c0,170 223,322 288,233 16,-22 6,-28 13,-52 4,-16 23,-16 41,-23 14,-5 29,-13 42,-22 53,-41 79,-91 79,-183l0 -304c0,-63 -18,-116 -49,-149 -120,-129 -324,-53 -324,132l0 347c0,137 127,117 140,50 12,-59 -13,-403 10,-435 23,-33 81,-18 81,25l0 364c0,59 -89,52 -26,95 37,-9 73,-42 73,-86l0 -377c0,-86 -110,-119 -166,-51 -19,24 -18,44 -18,85l0 296c0,36 11,85 -26,85 -13,0 -17,-12 -17,-25l0 -399c0,-92 129,-170 226,-89 19,16 44,57 44,89l0 364c0,60 -24,110 -76,134 -19,8 -56,16 -70,33 -23,25 0,64 -36,71 -18,3 -56,-17 -72,-26 -74,-43 -110,-116 -110,-212l0 -343c0,-116 95,-235 214,-235 44,0 85,8 120,25 33,17 41,26 66,51 44,46 58,110 58,177l0 308c0,237 -162,210 -162,296 0,38 33,73 72,73 32,0 79,-41 99,-56 29,-22 52,-50 72,-82 44,-68 61,-142 61,-252 0,-119 12,-325 -23,-431 -15,-46 -39,-92 -72,-125 -74,-75 -162,-126 -278,-126 -111,0 -196,49 -267,119 -64,64 -102,157 -102,284l0 300c0,90 15,156 56,223 46,78 122,136 210,164 23,7 51,10 77,16 5,18 4,17 0,34 -89,22 -234,-69 -285,-134 -72,-92 -100,-182 -100,-307l0 -296c0,-172 80,-329 234,-404 151,-74 345,-43 465,73 59,56 123,163 123,275l0 416c0,125 -78,247 -178,315 -42,29 -88,43 -137,59 -39,13 -29,51 -6,51 59,0 163,-57 209,-100 55,-51 101,-106 130,-179 18,-46 34,-107 34,-171l0 -365c0,-168 -80,-291 -189,-373 -130,-98 -321,-120 -470,-45 -26,12 -48,26 -70,41 -10,7 -21,15 -31,25 -5,5 -7,7 -13,13l-66 75c-51,67 -83,159 -83,251z"/>
   <path class="fil0" d="M10475 7955c0,14 17,20 26,25 10,-5 13,-7 22,-12l0 -26c-9,-6 -12,-8 -22,-13 -9,5 -26,11 -26,26z"/>
  </g>
 </g>
</svg>
